<?xml version="1.0"?>
<svg xmlns="http://www.w3.org/2000/svg" viewBox="0 0 96 96" width="512" height="512"><g id="_13-location" data-name="13-location"><path fill = "white" d="M48,0A40.045,40.045,0,0,0,8,40C8,65.661,44.011,93.965,45.544,95.157a4,4,0,0,0,4.912,0C51.988,93.965,88,65.661,88,40A40.045,40.045,0,0,0,48,0Zm-.02,86.842C37.179,77.82,16,56.688,16,40a32,32,0,0,1,64,0C80,58.31,55.842,80.2,47.98,86.842Z"/><path d="M64,20H32a4,4,0,0,0-4,4V56a4,4,0,0,0,4,4H64a4,4,0,0,0,4-4V24A4,4,0,0,0,64,20ZM60,52H36V28h8v8h8V28h8Z"/></g></svg>
